<svg xmlns="http://www.w3.org/2000/svg" width="300" height="50" viewBox="0 0 300 50"><rect width="100%" height="100%" fill="none"/><path fill="#e6e7e8" d="m103.3 21.29-1.63-.29q.19-1.3.73-2.28t1.34-1.64q.81-.65 1.85-.98 1.05-.34 2.25-.34 1.25 0 2.25.36 1.01.36 1.72.99t1.1 1.48q.38.85.38 1.84 0 .86-.2 1.52-.19.65-.55 1.14-.37.49-.9.82-.54.34-1.22.57 1.63.51 2.43 1.56t.8 2.64q0 1.35-.5 2.38-.5 1.04-1.35 1.75-.85.7-1.97 1.07-1.12.36-2.37.36-1.36 0-2.37-.31-1.02-.32-1.77-.93t-1.27-1.5q-.53-.89-.9-2.05l1.36-.56q.54-.23 1.01-.12t.68.51q.22.43.49.86.27.42.65.76.37.33.88.53.5.21 1.2.21.79 0 1.38-.26.59-.25.98-.67.39-.41.59-.91.19-.51.19-1.02 0-.65-.14-1.18-.13-.54-.57-.91-.44-.38-1.26-.59t-2.19-.21v-2.2q1.14-.01 1.89-.21t1.19-.56.62-.86q.17-.5.17-1.1 0-1.27-.71-1.93-.71-.67-1.9-.67-.55 0-1.01.16t-.83.44-.62.65q-.25.38-.38.83-.21.57-.55.76-.35.19-.97.09M128.7 25q0 2.36-.51 4.11-.5 1.74-1.4 2.88-.89 1.14-2.11 1.69-1.22.56-2.63.56t-2.62-.56q-1.21-.55-2.09-1.69-.89-1.14-1.39-2.88-.5-1.75-.5-4.11 0-2.37.5-4.11t1.39-2.88q.88-1.13 2.09-1.69t2.62-.56 2.63.56 2.11 1.69q.9 1.14 1.4 2.88.51 1.74.51 4.11m-3.19 0q0-1.96-.29-3.25-.28-1.29-.76-2.05-.49-.76-1.11-1.07-.63-.3-1.3-.3-.66 0-1.28.3-.62.31-1.1 1.07-.47.76-.75 2.05t-.28 3.25.28 3.25.75 2.05q.48.76 1.1 1.07t1.28.31q.67 0 1.3-.31.62-.31 1.11-1.07.48-.76.76-2.05.29-1.29.29-3.25m17.69 0q0 2.36-.51 4.11-.5 1.74-1.4 2.88-.89 1.14-2.11 1.69-1.22.56-2.63.56t-2.62-.56q-1.21-.55-2.09-1.69-.89-1.14-1.39-2.88-.5-1.75-.5-4.11 0-2.37.5-4.11t1.39-2.88q.88-1.13 2.09-1.69t2.62-.56 2.63.56 2.11 1.69q.9 1.14 1.4 2.88.51 1.74.51 4.11m-3.19 0q0-1.96-.29-3.25-.28-1.29-.76-2.05-.49-.76-1.11-1.07-.63-.3-1.3-.3-.66 0-1.28.3-.62.31-1.1 1.07-.47.76-.75 2.05t-.28 3.25.28 3.25.75 2.05q.48.76 1.1 1.07t1.28.31q.67 0 1.3-.31.62-.31 1.11-1.07.48-.76.76-2.05.29-1.29.29-3.25m23.04 4.9-1.64 1.61-4.24-4.23-4.27 4.26-1.64-1.61 4.28-4.29-4.08-4.08 1.63-1.62 4.07 4.07 4.05-4.05 1.65 1.63-4.06 4.06zm13.14-11.14-.64 3.77q.6-.13 1.15-.18.55-.06 1.06-.06 1.43 0 2.51.42 1.09.43 1.83 1.18t1.11 1.76q.38 1 .38 2.16 0 1.44-.51 2.63t-1.41 2.03-2.13 1.31q-1.23.46-2.68.46-.85 0-1.61-.17-.76-.18-1.43-.47-.67-.3-1.24-.68t-1.02-.81l.95-1.31q.3-.42.79-.42.31 0 .64.2.32.2.74.43.42.24.99.44t1.37.2q.85 0 1.5-.27.65-.28 1.08-.77.43-.5.65-1.18t.22-1.48q0-1.47-.86-2.3t-2.53-.83q-1.29 0-2.64.47l-1.92-.55 1.5-8.77h8.92v1.31q0 .66-.41 1.07t-1.4.41zM198.85 25q0 2.36-.51 4.11-.5 1.74-1.4 2.88-.89 1.14-2.11 1.69-1.22.56-2.63.56t-2.62-.56q-1.21-.55-2.09-1.69-.89-1.14-1.39-2.88-.5-1.75-.5-4.11 0-2.37.5-4.11t1.39-2.88q.88-1.13 2.09-1.69t2.62-.56 2.63.56 2.11 1.69q.9 1.14 1.4 2.88.51 1.74.51 4.11m-3.19 0q0-1.96-.29-3.25-.28-1.29-.76-2.05-.49-.76-1.11-1.07-.63-.3-1.3-.3-.66 0-1.28.3-.62.31-1.1 1.07-.47.76-.75 2.05t-.28 3.25.28 3.25.75 2.05q.48.76 1.1 1.07t1.28.31q.67 0 1.3-.31.62-.31 1.11-1.07.48-.76.76-2.05.29-1.29.29-3.25"/></svg>